<svg xmlns="http://www.w3.org/2000/svg" viewBox="0 0 407.11 334.76"><defs><style>.cls-1{fill:#d3f6f3;}.cls-2{fill:#fee9b2;}</style></defs><title>geometric-items</title><g id="Capa_2" data-name="Capa 2"><g id="Bg"><path class="cls-1" d="M22.52,11.26A11.26,11.26,0,1,1,11.26,0,11.26,11.26,0,0,1,22.52,11.26Z"/><path class="cls-1" d="M93,11.26A11.26,11.26,0,1,1,81.71,0,11.26,11.26,0,0,1,93,11.26Z"/><path class="cls-1" d="M163.41,11.26A11.26,11.26,0,1,1,152.15,0,11.26,11.26,0,0,1,163.41,11.26Z"/><path class="cls-1" d="M233.86,11.26A11.26,11.26,0,1,1,222.6,0,11.26,11.26,0,0,1,233.86,11.26Z"/><path class="cls-1" d="M304.31,11.26A11.26,11.26,0,1,1,293.05,0,11.26,11.26,0,0,1,304.31,11.26Z"/><path class="cls-1" d="M22.52,81.71A11.26,11.26,0,1,1,11.26,70.45,11.26,11.26,0,0,1,22.52,81.71Z"/><path class="cls-1" d="M93,81.71A11.26,11.26,0,1,1,81.71,70.45,11.25,11.25,0,0,1,93,81.71Z"/><path class="cls-1" d="M163.41,81.71a11.26,11.26,0,1,1-11.26-11.26A11.26,11.26,0,0,1,163.41,81.71Z"/><path class="cls-1" d="M233.86,81.71A11.26,11.26,0,1,1,222.6,70.45,11.26,11.26,0,0,1,233.86,81.71Z"/><path class="cls-1" d="M304.31,81.71a11.26,11.26,0,1,1-11.26-11.26A11.26,11.26,0,0,1,304.31,81.71Z"/><path class="cls-1" d="M22.52,152.15A11.26,11.26,0,1,1,11.26,140.9,11.26,11.26,0,0,1,22.52,152.15Z"/><path class="cls-1" d="M93,152.15A11.26,11.26,0,1,1,81.71,140.9,11.26,11.26,0,0,1,93,152.15Z"/><path class="cls-1" d="M163.41,152.15a11.26,11.26,0,1,1-11.26-11.25A11.26,11.26,0,0,1,163.41,152.15Z"/><path class="cls-1" d="M233.86,152.15A11.26,11.26,0,1,1,222.6,140.9,11.26,11.26,0,0,1,233.86,152.15Z"/><path class="cls-1" d="M304.31,152.15a11.26,11.26,0,1,1-11.26-11.25A11.26,11.26,0,0,1,304.31,152.15Z"/><path class="cls-1" d="M22.52,222.6a11.26,11.26,0,1,1-11.26-11.26A11.26,11.26,0,0,1,22.52,222.6Z"/><path class="cls-1" d="M93,222.6a11.26,11.26,0,1,1-11.25-11.26A11.26,11.26,0,0,1,93,222.6Z"/><path class="cls-1" d="M163.41,222.6a11.26,11.26,0,1,1-11.26-11.26A11.26,11.26,0,0,1,163.41,222.6Z"/><path class="cls-1" d="M233.86,222.6a11.26,11.26,0,1,1-11.26-11.26A11.26,11.26,0,0,1,233.86,222.6Z"/><path class="cls-1" d="M304.31,222.6a11.26,11.26,0,1,1-11.26-11.26A11.26,11.26,0,0,1,304.31,222.6Z"/><path class="cls-2" d="M353.63,334.76a17.58,17.58,0,1,1,17.57-17.57A17.6,17.6,0,0,1,353.63,334.76Zm0-27.89a10.32,10.32,0,1,0,10.31,10.32A10.33,10.33,0,0,0,353.63,306.87Z"/><path class="cls-2" d="M276.35,310.63l-46-4,13.23-18.9,3,2.08-3-2.08,13.23-18.91Zm-32.82-10.15,20.92,1.82-8.88-19Z"/><path class="cls-2" d="M376.5,207.53,363,176.91l30.61-13.5L407.11,194Zm-5.3-27.43,8.48,19.22,19.23-8.48-8.48-19.22Z"/></g></g></svg>