<svg xmlns="http://www.w3.org/2000/svg" viewBox="0 0 689.26 556.08"><defs><style>.cls-1{fill:#fee9b2;}.cls-2{fill:#fbd1b7;}.cls-3{fill:#444b54;}.cls-4{fill:#d3f6f3;}</style></defs><title>groomerly-logo</title><g id="Capa_2" data-name="Capa 2"><g id="Capa_2-2" data-name="Capa 2"><path class="cls-1" d="M546.66,152.56H419.87a12.75,12.75,0,0,1-8.73-3.65l-42.28-39.67v221.6c0,.61,0,2-.12,3.89H603.41v-231l-48,45.19A12.77,12.77,0,0,1,546.66,152.56Z"/><path class="cls-2" d="M266.37,296.81c0,.09,2.7,4.33,10.6,17.27,9.51,15.56,23.69,22.22,43.34,20.34,20.88-2,35.33-9.53,43-22.37a39.84,39.84,0,0,0,5.47-17.51V95.24c0-.42,0-.83.06-1.24V86.44h-233a13.42,13.42,0,0,1,.4,3.23V293.42c1.6,6.38,11.14,37.6,45.19,40.62,17.21,1.52,31.83-2.65,42.27-12.07,9.48-8.56,15.15-12.19,15.15-24.79Z"/><circle class="cls-3" cx="178.73" cy="121.99" r="18.28" transform="translate(-33.91 162.11) rotate(-45)"/><circle class="cls-3" cx="412.88" cy="196.25" r="18.28"/><circle class="cls-3" cx="506.99" cy="196.25" r="18.28"/><path class="cls-3" d="M459.93,235.48c-10.36,0-19.43,6.36-24.5,10.79a4.82,4.82,0,0,0,.31,7.53l21.36,15.57a4.8,4.8,0,0,0,5.66,0l21.36-15.57a4.82,4.82,0,0,0,.31-7.53C479.36,241.84,470.29,235.48,459.93,235.48Z"/><circle class="cls-3" cx="273.13" cy="121.99" r="18.28"/><path class="cls-3" d="M582.11,62.88a13,13,0,0,0-13.6,1.21l-60,44.9H404.29L349.35,68.05a13,13,0,0,0-20.77,10.42V261.19a36.55,36.55,0,0,1-4.95,16.05c-6.89,11.78-20,18.68-38.86,20.51-17.79,1.72-30.62-4.38-39.22-18.65a68.76,68.76,0,0,1-8.59-25,13.16,13.16,0,0,0-1.13-4.15c16.69-4.25,37.3-16,37.3-29.74,0-17.38-22-31.47-49.11-31.47s-49.11,14.09-49.11,31.47c0,13.78,20.6,25.49,37.3,29.74a12.89,12.89,0,0,0-1.19,5.41,42.66,42.66,0,0,1-13.71,31c-9.45,8.64-22.67,12.47-38.25,11.07-30.81-2.76-39.44-31.39-40.89-37.24V73.37a13,13,0,0,0-8.09-12c-14.79-6-29.82-4.39-43.44,4.77-29.76,20-45.33,71.84-45.33,94,0,36.58,41,51.35,42.72,52a13,13,0,0,0,8.59-24.54c-.25-.09-25.31-9.37-25.31-27.42,0-17.45,13.95-59.07,33.84-72.43a20.31,20.31,0,0,1,11-3.91V261.59A13.16,13.16,0,0,0,92.4,264C96,282.84,114,319.46,156.74,323.3c29.11,2.61,47.67-8.23,58.11-17.78a66.73,66.73,0,0,0,9.66-11C236.93,313.73,256.09,324,279.29,324c2.61,0,5.28-.13,8-.39,34.45-3.34,51-19.92,58.79-33.24A61.31,61.31,0,0,0,354.58,261V104.37l37.63,28A13,13,0,0,0,400,135H512.8a13,13,0,0,0,7.78-2.59l42.71-31.94V311a13,13,0,0,0,26,0V74.51A13,13,0,0,0,582.11,62.88Z"/><path class="cls-4" d="M23,501.07c-13.24-11-15.28-32.76,1.36-56,21.9-30.73,74.53-59.76,90.15-59.76,4.24,0,6.62,2.21,9.84,7.64,3.74,6.79,2.89,10.36,1.7,10.86-37.52,16.47-69.44,34-87.94,60.78-7,10.19-9.17,19.69-8.32,26.49,14.94.67,41.59-9.51,56.36-23.94-3.39,1-8.15,2.21-13.24,3.56-3.73.85-6.28.85-7.47-1.52A41.13,41.13,0,0,1,61.71,459c-.34-2-.17-2.89,1.86-3.4,7.47-1.69,40.75-7.13,50.77-8,1.52-.17,1.52,1.7.17,2.72-3.74,2.72-6.8,7.64-9,9.34-2.72,1.87-7.81,4.07-13.92,5.94A75.33,75.33,0,0,1,90.23,476c-.68,3.05-1.7,6.28-6.45,11.71-8,8.49-25.3,22.41-40.75,22.41C34.37,510.07,27.07,507,23,501.07Z"/><path class="cls-4" d="M108.22,502.09c-5.1-1.36-9.51-2.89-9.51-8.49,0-4.92,3.23-12.9,11.72-23.93,6.62-8.66,17.65-24.28,20.2-29.21.51-1.18,1.87-1.18,2.88-.84,2.89,1,4.93,1.18,7.3,2.54,2,1.19,2.72,3.23,2.72,5.6a24.07,24.07,0,0,1-1,6.46c9.68-8.83,18.34-14.77,26-18.34,3.73-1.87,6.11-2.72,7.47-2.72s1.69.85,2.88,1.87c.51.51,1.53,1.19,1.53,1.53s-.34.68-.85,1c-17.15,10.69-37.52,30.22-53.81,55-6.8,10.19-8.32,11.55-10.19,11.55C114.33,504.13,113,503.45,108.22,502.09Z"/><path class="cls-4" d="M163.39,498.36c-7.47-8.15-9-20.72,1.53-34.64,8.49-11.37,22.92-22.58,34.46-22.58,5.6,0,12.22,3.4,14.43,6.79,4.59,1.87,6.79,7,6.79,13.08a33,33,0,0,1-.34,4.07c11.21-.85,19-6.11,26.32-13.41l.68-.68c1.35-1.36,1.86-1.19,2.37-.51l.34.51a2.11,2.11,0,0,1-.17,2.89l-.68.84c-5.94,7.47-17.14,16.3-30.72,17.49a57.17,57.17,0,0,1-4.76,10.36C205.49,496.66,193.1,506,180,506,172.73,506,168,503.11,163.39,498.36Zm16.3-4.42c11.37-2.88,22.58-12.39,29-22.41-7.13-1.7-10-6.45-10-11a84.82,84.82,0,0,0-13.92,17C181.05,483.25,178.84,489,179.69,493.94Zm32.59-29.54a22.81,22.81,0,0,0,1.36-7.13c0-2.38-.85-4.24-2.37-4.75a22.65,22.65,0,0,0-5.1,2.37c0,.34-.17.85-.17,1.53C206,460,207.7,463,212.28,464.4Z"/><path class="cls-4" d="M230.28,498c-7.65-8.66-8.83-20.21,2.2-35,9.34-12.39,26.49-22.58,36.5-22.58A18.44,18.44,0,0,1,279.34,443c4.92,3.06,6.11,4.92,6.11,5.94,0,.68-.17,1.19-1.87,2.21a18.69,18.69,0,0,1,3.57,11.54,41.68,41.68,0,0,1-.34,4.59c9.67-1.53,19-7.81,26.82-15.62l.68-.68c1.36-1.36,1.87-1.19,2.38-.51l.34.51a2.11,2.11,0,0,1-.17,2.89l-.68.84c-6.62,8.15-19,18.34-31.75,20.55-5.94,14.77-20.71,30.39-37.52,30.39C239.61,505.66,234.69,502.94,230.28,498Zm44-22.75c-6.63-1.7-9.68-6.45-10.19-12.06-10.7,8.66-18.85,19.53-17.66,30.22C256.59,492.41,267.62,484.43,274.25,475.27Zm4.41-21.56c-2.72,1.52-5.6,3.22-8.49,5.09.34,4.58,2.89,7.64,8.49,8.49a19.44,19.44,0,0,0,1.53-7.3C280.19,457.1,279.68,455.06,278.66,453.71Z"/><path class="cls-4" d="M337.9,506.5c-2.2,0-5.77-2.2-8.48-4.92-3.74-3.9-4.42-7.64-2.38-12.39,3.22-7.81,15.11-21.22,25.46-35.48-10,5.94-27.16,20.54-43.12,45.16-4.58,7.13-7.64,7.8-11.2,6.62a46.35,46.35,0,0,1-7.13-4.08c-2.55-1.7-4.08-5.09-3.57-9.85.68-5.6,6.62-14.43,12.23-21.89,18.67-24.62,22.75-29.54,25.46-29.54,2.89,0,6.79,4.07,11.71,6.79,3.06,1.52,3.91,3.39,3.57,6.11,10.19-7.81,16.13-10.7,19.35-10.7a11.36,11.36,0,0,1,7,2.55c2.38,1.87,3.74,3.56,3.74,6.79,0,3.9-2,9.51-5.09,14.77,13.24-10.19,16.63-12.22,20.37-12.22a12.93,12.93,0,0,1,6.28,1.69c3.4,1.7,5.09,4.59,5.09,6.79,0,7.64-11.71,19.19-15.95,28.86a37.07,37.07,0,0,0,16.12-7.64c.34-.33.85-.33,1,0a11.57,11.57,0,0,1,.34,2.55,4.5,4.5,0,0,1-1.36,3.06c-4.07,4.75-13.58,12.56-22.24,12.56-9.67,0-14.6-9.85-13.92-14.77a32.63,32.63,0,0,1,4.93-12.56c-4.93,3.9-9.68,10.86-18.51,22.58C342.15,504.3,340.11,506.5,337.9,506.5Z"/><path class="cls-4" d="M415.82,503.79a29.25,29.25,0,0,1-12.73-13.92c-2.55-5.78-.17-16.13,7.13-26,9.51-12.56,26.15-22.75,37.69-22.75,4.58,0,8.15,1.53,12.9,8.66,3.74,3.23,5.94,6.28,5.94,10.19,0,4.07-3.56,9.34-14.43,16.13-6.28,3.9-16.12,8.14-27.5,11.54a26.45,26.45,0,0,0-.34,6.28,23.3,23.3,0,0,0,7.13,1c13.58,0,29.88-9,42.1-25.29l.51-.68c1.19-1.53,1.53-1.7,2-1.19l.51.51c1.19,1.19,1,2,.34,3.22l-.51.85c-11,18.51-33.1,33.62-50.08,33.62C422.1,506,418.71,505.32,415.82,503.79Zm40.58-49.24c-10.53,2.55-22.75,13.25-28.52,25,7.47-3.05,14.94-7,19-10.18C454.36,463.89,456.74,459.48,456.4,454.55Z"/><path class="cls-4" d="M467.43,501.24c-3.91-2.71-5.6-4.92-5.6-8.66,0-5.77,3.73-12.05,11.88-22.91,10.36-13.93,17.49-25,19.69-29.21.51-1,1.36-1.35,3.4-1.18a25.09,25.09,0,0,1,9.17,2.37c2.37,1.36,3.9,3.74,2,11.21,9.34-8,17.83-13.24,27.34-18.68,3-1.69,4.58-2.54,5.43-2.54,1.36,0,1.87,2.71,1.87,4.41s-1.19,2.72-3.23,4.24c-16,11.55-32.25,27-51.78,53.65-7.3,10-8.32,11-11,11C474.05,505,471.16,503.79,467.43,501.24Z"/><path class="cls-4" d="M524.47,506.34c-3.06-2.55-5.26-5.44-5.26-11,0-6.45,3.73-16.47,9.67-25.63,25.13-38.71,42.28-64,56.2-83.7a2.24,2.24,0,0,1,3.22-.85c5.43,2.55,10.36,5.09,10.36,10.53,0,7-4.59,15.27-44,74-10.7,15.95-13.58,23.93-13.24,28,5.6.68,16.29-6.45,32.42-28l.51-.68c1.19-1.53,1.53-1.7,2-1.19l.51.51c1.19,1.19,1,2,.34,3.22l-.51.85c-17.32,29-30.73,38.54-40.92,38.54C531.6,510.92,527.86,509.05,524.47,506.34Z"/><path class="cls-4" d="M530.07,547.93c-4.25-6.11-4.08-16.3,5.43-24.79C547.05,513,567.93,507,589.32,503.45c4.07-6.11,8.49-12.9,13.07-20.54a103.89,103.89,0,0,1-15.28,13.75c-4.75,3-8.32,4.07-10.36,4.07-3.22,0-6.79-1.36-10.69-5.6-3.56-3.9-2.38-9,7.81-25.46,8.15-13.08,12-22.42,13.07-27,.34-1.87,1.19-2.54,2.55-2.54a20,20,0,0,1,7.47,1.69c7.3,3.06,9.16,8,4.24,19.36-2.88,6.79-7.13,14.94-9.84,21.39C599,478,608.5,469,621.24,451.5c4.07-5.6,4.92-6.62,6.62-6.62s4.07,1.19,7.3,2.21c5.77,1.86,7.81,5.26,5.09,10.18-5.6,10.7-15.45,27-26.15,43.46,10.53-1,20.21-1.36,27.17-1.36,1.36,0,2,.51,1.7,1.19-.85,1.53-1.7,2.21-2.72,3.74s-3.06,2.2-5.43,2.37c-9.34.68-18.17,1.7-26.66,2.89-21,30.05-43.12,46.52-62.3,46.52A18.76,18.76,0,0,1,530.07,547.93Zm9.51-4.93c12,.17,25.63-8.48,41.42-28.52-13.92,3.74-25.13,8.49-32.26,14.26C543.14,533.16,539.07,538.25,539.58,543Z"/><path class="cls-3" d="M10.53,488.6c-13.24-11-15.28-32.77,1.35-56,21.91-30.73,74.53-59.76,90.15-59.76,4.25,0,6.62,2.2,9.85,7.64,3.73,6.79,2.89,10.35,1.7,10.86-37.52,16.47-69.44,34-87.94,60.78-7,10.19-9.17,19.69-8.32,26.48,14.94.68,41.59-9.5,56.36-23.93-3.39,1-8.15,2.2-13.24,3.56-3.74.85-6.28.85-7.47-1.53a41.11,41.11,0,0,1-3.74-10.18c-.34-2-.17-2.89,1.87-3.4,7.47-1.7,40.75-7.13,50.76-8,1.53-.17,1.53,1.7.17,2.72-3.73,2.71-6.79,7.64-9,9.34-2.72,1.86-7.81,4.07-13.93,5.94a76.71,76.71,0,0,1-1.35,10.35c-.68,3.06-1.7,6.28-6.46,11.72-8,8.49-25.29,22.41-40.74,22.41C21.9,497.6,14.6,494.54,10.53,488.6Z"/><path class="cls-3" d="M95.75,489.62c-5.1-1.36-9.51-2.89-9.51-8.49,0-4.92,3.22-12.9,11.71-23.94,6.62-8.66,17.66-24.27,20.21-29.2.51-1.19,1.86-1.19,2.88-.85,2.89,1,4.92,1.19,7.3,2.55,2,1.19,2.72,3.23,2.72,5.6a24,24,0,0,1-1,6.45c9.68-8.82,18.33-14.77,26-18.33,3.74-1.87,6.12-2.72,7.47-2.72s1.7.85,2.89,1.87c.51.51,1.53,1.19,1.53,1.53s-.34.68-.85,1c-17.15,10.69-37.52,30.21-53.82,55-6.79,10.19-8.32,11.55-10.18,11.55C101.86,491.66,100.5,491,95.75,489.62Z"/><path class="cls-3" d="M150.92,485.88c-7.47-8.15-9-20.71,1.53-34.63,8.48-11.37,22.91-22.58,34.46-22.58,5.6,0,12.22,3.4,14.43,6.79,4.58,1.87,6.79,7,6.79,13.07a33,33,0,0,1-.34,4.08c11.21-.85,19-6.11,26.31-13.41l.68-.68c1.36-1.36,1.87-1.19,2.38-.51l.34.51a2.1,2.1,0,0,1-.17,2.88l-.68.85c-5.94,7.47-17.15,16.3-30.73,17.49a57,57,0,0,1-4.75,10.35c-8.15,14.1-20.54,23.43-33.61,23.43C160.25,493.52,155.5,490.64,150.92,485.88Zm16.3-4.41c11.37-2.89,22.57-12.39,29-22.41-7.13-1.7-10-6.45-10-11a84.85,84.85,0,0,0-13.92,17C168.57,470.77,166.37,476.55,167.22,481.47Zm32.59-29.54a22.86,22.86,0,0,0,1.36-7.13c0-2.38-.85-4.25-2.38-4.76a22.25,22.25,0,0,0-5.09,2.38c0,.34-.17.85-.17,1.53C193.53,447.51,195.23,450.57,199.81,451.93Z"/><path class="cls-3" d="M217.8,485.54c-7.64-8.66-8.83-20.2,2.21-35,9.34-12.39,26.48-22.58,36.5-22.58a18.46,18.46,0,0,1,10.36,2.55c4.92,3,6.11,4.92,6.11,5.94,0,.68-.17,1.19-1.87,2.21a18.67,18.67,0,0,1,3.56,11.54,41.68,41.68,0,0,1-.34,4.59c9.68-1.53,19-7.81,26.83-15.62l.68-.68c1.36-1.36,1.87-1.19,2.37-.51l.34.51a2.1,2.1,0,0,1-.17,2.88l-.67.85c-6.63,8.15-19,18.34-31.75,20.54-5.94,14.77-20.71,30.39-37.52,30.39C227.14,493.18,222.22,490.47,217.8,485.54Zm44-22.75c-6.62-1.69-9.67-6.45-10.18-12.05-10.7,8.66-18.85,19.52-17.66,30.22C244.12,479.94,255.15,472,261.77,462.79Zm4.42-21.56c-2.72,1.53-5.61,3.23-8.49,5.1.34,4.58,2.88,7.64,8.49,8.49a19.43,19.43,0,0,0,1.52-7.31C267.71,444.63,267.21,442.59,266.19,441.23Z"/><path class="cls-3" d="M325.43,494c-2.21,0-5.77-2.2-8.49-4.92-3.73-3.91-4.41-7.64-2.37-12.39,3.22-7.81,15.11-21.23,25.46-35.49-10,5.95-27.16,20.55-43.12,45.16-4.58,7.13-7.64,7.81-11.2,6.62a45.87,45.87,0,0,1-7.13-4.07c-2.55-1.7-4.08-5.09-3.57-9.85.68-5.6,6.62-14.43,12.22-21.9,18.68-24.61,22.75-29.54,25.47-29.54,2.88,0,6.79,4.08,11.71,6.79,3.06,1.53,3.91,3.4,3.57,6.11,10.18-7.8,16.13-10.69,19.35-10.69a11.36,11.36,0,0,1,7,2.55c2.38,1.86,3.74,3.56,3.74,6.79,0,3.9-2,9.5-5.1,14.77,13.25-10.19,16.64-12.23,20.38-12.23a13,13,0,0,1,6.28,1.7c3.39,1.7,5.09,4.58,5.09,6.79,0,7.64-11.71,19.19-16,28.86a37.17,37.17,0,0,0,16.13-7.64c.34-.34.85-.34,1,0a11.57,11.57,0,0,1,.34,2.55,4.46,4.46,0,0,1-1.36,3.05c-4.07,4.76-13.58,12.57-22.24,12.57-9.68,0-14.6-9.85-13.92-14.77a32.69,32.69,0,0,1,4.92-12.56c-4.92,3.9-9.67,10.86-18.5,22.57C329.68,491.83,327.64,494,325.43,494Z"/><path class="cls-3" d="M403.35,491.32a29.18,29.18,0,0,1-12.73-13.93c-2.55-5.77-.17-16.12,7.13-26,9.5-12.56,26.14-22.75,37.69-22.75,4.58,0,8.15,1.53,12.9,8.66,3.73,3.22,5.94,6.28,5.94,10.18,0,4.08-3.56,9.34-14.43,16.13-6.28,3.91-16.13,8.15-27.5,11.55a26.42,26.42,0,0,0-.34,6.28,23.3,23.3,0,0,0,7.13,1c13.58,0,29.88-9,42.1-25.3l.51-.68c1.19-1.52,1.53-1.69,2-1.19l.51.51c1.19,1.19,1,2,.34,3.23l-.51.85c-11,18.5-33.11,33.61-50.08,33.61C409.63,493.52,406.24,492.84,403.35,491.32Zm40.57-49.24c-10.52,2.55-22.74,13.24-28.52,25,7.47-3.06,14.94-7,19-10.19C441.89,451.42,444.26,447,443.92,442.08Z"/><path class="cls-3" d="M455,488.77c-3.91-2.72-5.61-4.92-5.61-8.66,0-5.77,3.74-12.05,11.89-22.92,10.35-13.92,17.48-24.95,19.69-29.2.51-1,1.36-1.36,3.4-1.19a25,25,0,0,1,9.16,2.38c2.38,1.36,3.91,3.74,2,11.2,9.34-8,17.83-13.24,27.33-18.67,3.06-1.7,4.59-2.55,5.44-2.55,1.36,0,1.87,2.72,1.87,4.42s-1.19,2.71-3.23,4.24c-16,11.55-32.26,27-51.78,53.65-7.3,10-8.32,11-11,11C461.58,492.5,458.69,491.32,455,488.77Z"/><path class="cls-3" d="M512,493.86c-3.06-2.54-5.27-5.43-5.27-11,0-6.45,3.74-16.47,9.68-25.64,25.13-38.71,42.27-64,56.19-83.69a2.25,2.25,0,0,1,3.23-.85c5.43,2.54,10.36,5.09,10.36,10.52,0,7-4.59,15.28-44,74-10.69,16-13.58,23.94-13.24,28,5.61.68,16.3-6.45,32.43-28l.51-.68c1.19-1.52,1.53-1.69,2-1.19l.51.51c1.18,1.19,1,2,.33,3.23l-.5.85c-17.32,29-30.73,38.54-40.92,38.54C519.13,498.45,515.39,496.58,512,493.86Z"/><path class="cls-3" d="M517.6,535.46c-4.25-6.12-4.08-16.3,5.43-24.79,11.54-10.19,32.43-16.13,53.82-19.69,4.07-6.12,8.48-12.91,13.07-20.55a104.2,104.2,0,0,1-15.28,13.76c-4.76,3.05-8.32,4.07-10.36,4.07-3.22,0-6.79-1.36-10.69-5.6-3.57-3.91-2.38-9,7.81-25.47,8.15-13.07,12.05-22.41,13.07-27,.34-1.87,1.19-2.55,2.55-2.55a20.13,20.13,0,0,1,7.47,1.7c7.3,3.06,9.16,8,4.24,19.35-2.89,6.79-7.13,14.94-9.85,21.39,7.64-4.58,17.15-13.58,29.88-31.06,4.08-5.61,4.93-6.62,6.62-6.62s4.08,1.18,7.3,2.2c5.78,1.87,7.81,5.27,5.1,10.19-5.61,10.69-15.45,27-26.15,43.46,10.53-1,20.2-1.36,27.16-1.36,1.36,0,2,.51,1.7,1.19-.85,1.53-1.7,2.21-2.71,3.74s-3.06,2.2-5.44,2.37c-9.33.68-18.16,1.7-26.65,2.89-21.05,30.05-43.12,46.51-62.31,46.51A18.74,18.74,0,0,1,517.6,535.46Zm9.5-4.93c12.06.17,25.64-8.49,41.43-28.52-13.92,3.74-25.13,8.49-32.26,14.26C530.67,520.69,526.59,525.78,527.1,530.53Z"/><path class="cls-4" d="M162.61,25.73h9.51a6.61,6.61,0,0,1,6.61,6.61v.28a6.61,6.61,0,0,1-6.61,6.61h-9.51a1.94,1.94,0,0,0-1.93,1.93v12.5a6.75,6.75,0,0,1-6.75,6.75h0a6.75,6.75,0,0,1-6.75-6.75V41.16a1.94,1.94,0,0,0-1.93-1.93h-9.37a6.75,6.75,0,0,1-6.75-6.75v-.14a6.61,6.61,0,0,1,6.61-6.61h9.51a1.93,1.93,0,0,0,1.93-1.93V11.17a6.61,6.61,0,0,1,6.61-6.62h.28a6.61,6.61,0,0,1,6.61,6.62V23.8A1.93,1.93,0,0,0,162.61,25.73Z"/><path class="cls-3" d="M157.93,21.18h9.51a6.61,6.61,0,0,1,6.61,6.61v.28a6.61,6.61,0,0,1-6.61,6.61h-9.51A1.92,1.92,0,0,0,156,36.61V49.1a6.76,6.76,0,0,1-6.75,6.76h0a6.76,6.76,0,0,1-6.75-6.76V36.61a1.93,1.93,0,0,0-1.93-1.93H131.2a6.75,6.75,0,0,1-6.75-6.75v-.14a6.61,6.61,0,0,1,6.61-6.61h9.51a1.94,1.94,0,0,0,1.93-1.93V6.61A6.61,6.61,0,0,1,149.11,0h.28A6.61,6.61,0,0,1,156,6.61V19.25A1.93,1.93,0,0,0,157.93,21.18Z"/><path class="cls-4" d="M50.26,259.89h9.51a6.62,6.62,0,0,1,6.62,6.62v.27a6.62,6.62,0,0,1-6.62,6.62H50.26a1.92,1.92,0,0,0-1.92,1.92v12.5a6.76,6.76,0,0,1-6.76,6.75h0a6.75,6.75,0,0,1-6.75-6.75v-12.5a1.92,1.92,0,0,0-1.93-1.92H23.53a6.76,6.76,0,0,1-6.75-6.76v-.13a6.61,6.61,0,0,1,6.61-6.62H32.9A1.92,1.92,0,0,0,34.83,258V245.33a6.62,6.62,0,0,1,6.62-6.62h.27a6.63,6.63,0,0,1,6.62,6.62V258A1.92,1.92,0,0,0,50.26,259.89Z"/><path class="cls-3" d="M45.58,255.34h9.51A6.62,6.62,0,0,1,61.71,262v.28a6.62,6.62,0,0,1-6.62,6.61H45.58a1.94,1.94,0,0,0-1.93,1.93v12.5A6.75,6.75,0,0,1,36.9,290h0a6.75,6.75,0,0,1-6.75-6.75v-12.5a1.93,1.93,0,0,0-1.93-1.93H18.85a6.75,6.75,0,0,1-6.75-6.75V262a6.61,6.61,0,0,1,6.61-6.61h9.51a1.93,1.93,0,0,0,1.93-1.93V240.78a6.62,6.62,0,0,1,6.62-6.62H37a6.61,6.61,0,0,1,6.61,6.62v12.63A1.94,1.94,0,0,0,45.58,255.34Z"/><path class="cls-4" d="M634.07,349.21h9.5a6.61,6.61,0,0,1,6.62,6.61v.28a6.61,6.61,0,0,1-6.62,6.61h-9.5a1.93,1.93,0,0,0-1.93,1.93v12.5a6.76,6.76,0,0,1-6.76,6.75h0a6.75,6.75,0,0,1-6.75-6.75v-12.5a1.93,1.93,0,0,0-1.93-1.93h-9.37a6.75,6.75,0,0,1-6.75-6.75v-.14a6.61,6.61,0,0,1,6.62-6.61h9.5a1.92,1.92,0,0,0,1.93-1.93V334.65a6.62,6.62,0,0,1,6.62-6.62h.27a6.62,6.62,0,0,1,6.62,6.62v12.63A1.92,1.92,0,0,0,634.07,349.21Z"/><path class="cls-3" d="M629.38,344.66h9.51a6.61,6.61,0,0,1,6.62,6.61v.28a6.61,6.61,0,0,1-6.62,6.61h-9.51a1.93,1.93,0,0,0-1.92,1.93v12.5a6.76,6.76,0,0,1-6.76,6.75h0a6.75,6.75,0,0,1-6.75-6.75v-12.5a1.93,1.93,0,0,0-1.93-1.93h-9.37a6.75,6.75,0,0,1-6.75-6.75v-.14a6.61,6.61,0,0,1,6.62-6.61H612a1.93,1.93,0,0,0,1.93-1.93V330.1a6.62,6.62,0,0,1,6.62-6.62h.27a6.62,6.62,0,0,1,6.62,6.62v12.63A1.93,1.93,0,0,0,629.38,344.66Z"/><path class="cls-4" d="M673.13,290.46h9.51a6.62,6.62,0,0,1,6.62,6.62v.27a6.62,6.62,0,0,1-6.62,6.62h-9.51a1.92,1.92,0,0,0-1.92,1.93v12.49a6.76,6.76,0,0,1-6.76,6.75h0a6.75,6.75,0,0,1-6.75-6.75V305.9a1.92,1.92,0,0,0-1.93-1.93H646.4a6.75,6.75,0,0,1-6.75-6.75v-.14a6.62,6.62,0,0,1,6.62-6.62h9.5a1.92,1.92,0,0,0,1.93-1.93V275.9a6.61,6.61,0,0,1,6.62-6.61h.27a6.62,6.62,0,0,1,6.62,6.61v12.63A1.92,1.92,0,0,0,673.13,290.46Z"/><path class="cls-3" d="M668.45,285.91H678a6.61,6.61,0,0,1,6.62,6.61v.28a6.61,6.61,0,0,1-6.62,6.61h-9.51a1.94,1.94,0,0,0-1.93,1.93v12.5a6.75,6.75,0,0,1-6.75,6.75h0a6.75,6.75,0,0,1-6.75-6.75v-12.5a1.93,1.93,0,0,0-1.93-1.93h-9.37a6.75,6.75,0,0,1-6.75-6.75v-.14a6.61,6.61,0,0,1,6.61-6.61h9.51A1.92,1.92,0,0,0,653,284V271.35a6.62,6.62,0,0,1,6.62-6.62h.27a6.61,6.61,0,0,1,6.61,6.62V284A1.93,1.93,0,0,0,668.45,285.91Z"/></g></g></svg>