<svg xmlns="http://www.w3.org/2000/svg" viewBox="0 0 1776.09 368.94"><defs><style>.cls-1{fill:#d3f6f3;}.cls-2{fill:#444b54;}.cls-3{fill:#fee9b2;}.cls-4{fill:#fbd1b7;}</style></defs><title>groomerly-logo</title><g id="Capa_2" data-name="Capa 2"><g id="Capa_2-2" data-name="Capa 2"><path class="cls-1" d="M598.6,264.48c-25.14-21-29-62.22,2.58-106.39C642.77,99.74,742.71,44.61,772.37,44.61c8.06,0,12.58,4.19,18.7,14.51,7.09,12.89,5.48,19.67,3.22,20.63-71.24,31.27-131.85,64.48-167,115.42-13.22,19.34-17.41,37.4-15.8,50.29,28.37,1.29,79-18.05,107-45.46-6.45,1.94-15.47,4.2-25.14,6.78-7.1,1.61-11.93,1.61-14.19-2.91-2.9-5.48-6.12-13.86-7.09-19.34-.65-3.87-.32-5.48,3.54-6.45,14.19-3.22,77.38-13.54,96.4-15.15,2.9-.32,2.9,3.22.32,5.16-7.09,5.16-12.89,14.5-17.08,17.73-5.16,3.55-14.83,7.74-26.44,11.28a142.71,142.71,0,0,1-2.58,19.67C725,222.57,723.05,228.7,714,239c-15.15,16.12-48,42.56-77.38,42.56C620.2,281.57,606.34,275.77,598.6,264.48Z"/><path class="cls-1" d="M760.44,266.42c-9.68-2.58-18.06-5.48-18.06-16.12,0-9.35,6.13-24.5,22.25-45.46,12.57-16.44,33.53-46.1,38.36-55.45,1-2.26,3.55-2.26,5.48-1.61,5.48,1.93,9.35,2.25,13.86,4.83,3.87,2.26,5.16,6.13,5.16,10.64a45.56,45.56,0,0,1-1.93,12.25c18.37-16.76,34.82-28,49.32-34.82,7.1-3.54,11.61-5.15,14.19-5.15s3.22,1.61,5.48,3.54c1,1,2.9,2.26,2.9,2.9s-.64,1.29-1.61,1.94c-32.56,20.31-71.25,57.38-102.2,104.45-12.89,19.35-15.8,21.93-19.34,21.93C772,270.29,769.46,269,760.44,266.42Z"/><path class="cls-1" d="M865.21,259.33c-14.19-15.48-17.09-39.34,2.9-65.77,16.12-21.6,43.52-42.88,65.44-42.88,10.64,0,23.22,6.45,27.41,12.89,8.7,3.55,12.89,13.22,12.89,24.83a63.1,63.1,0,0,1-.64,7.74c21.28-1.62,36.11-11.61,50-25.47l1.29-1.29c2.58-2.58,3.54-2.26,4.51-1l.65,1c1.29,1.93,1.29,3.54-.32,5.48l-1.3,1.61c-11.28,14.18-32.56,30.95-58.35,33.21a108.31,108.31,0,0,1-9,19.66c-15.48,26.76-39,44.49-63.84,44.49C882.94,273.83,873.91,268.35,865.21,259.33Zm30.95-8.39c21.6-5.48,42.88-23.53,55.13-42.55-13.55-3.23-19-12.25-19-21a161.1,161.1,0,0,0-26.43,32.24C898.74,230.63,894.55,241.59,896.16,250.94Zm61.89-56.09a43.28,43.28,0,0,0,2.59-13.54c0-4.52-1.62-8.06-4.52-9a42.76,42.76,0,0,0-9.67,4.51c0,.65-.32,1.61-.32,2.9C946.13,186.46,949.35,192.27,958.05,194.85Z"/><path class="cls-1" d="M992.22,258.68c-14.51-16.44-16.76-38.36,4.19-66.41,17.73-23.54,50.3-42.88,69.32-42.88,7.41,0,13.21,1,19.66,4.83,9.35,5.81,11.61,9.35,11.61,11.29,0,1.29-.32,2.26-3.55,4.19,4.19,5.48,6.77,12.89,6.77,21.92a79.73,79.73,0,0,1-.64,8.71c18.37-2.9,36.11-14.83,50.94-29.66l1.29-1.29c2.57-2.58,3.54-2.26,4.51-1l.65,1c1.28,1.93,1.28,3.54-.33,5.48l-1.29,1.61c-12.57,15.48-36.11,34.82-60.28,39-11.29,28.05-39.34,57.71-71.25,57.71C1010,273.19,1000.6,268,992.22,258.68Zm83.5-43.2c-12.57-3.22-18.37-12.25-19.34-22.89-20.31,16.44-35.79,37.08-33.53,57.39C1042.19,248,1063.15,232.89,1075.72,215.48Zm8.38-40.94c-5.16,2.9-10.64,6.12-16.12,9.67.65,8.7,5.48,14.5,16.12,16.12a36.82,36.82,0,0,0,2.91-13.87C1087,181,1086,177.11,1084.1,174.54Z"/><path class="cls-1" d="M1196.61,274.8c-4.19,0-11-4.19-16.12-9.35-7.09-7.41-8.38-14.51-4.51-23.53,6.12-14.83,28.69-40.3,48.36-67.38-19,11.28-51.59,39-81.89,85.75-8.71,13.54-14.51,14.83-21.28,12.58-3.55-1.29-11.28-6.13-13.54-7.74-4.84-3.23-7.74-9.67-6.77-18.7,1.29-10.64,12.57-27.4,23.21-41.59,35.47-46.75,43.2-56.1,48.36-56.1,5.48,0,12.9,7.74,22.25,12.9,5.8,2.9,7.41,6.45,6.77,11.61,19.34-14.83,30.62-20.31,36.75-20.31a21.62,21.62,0,0,1,13.22,4.83c4.51,3.55,7.09,6.77,7.09,12.9,0,7.41-3.87,18.05-9.67,28,25.15-19.34,31.59-23.21,38.69-23.21,4.19,0,7.41,1,11.92,3.23,6.45,3.22,9.68,8.7,9.68,12.89,0,14.51-22.25,36.43-30.31,54.81,10.64-1.94,21.92-7.42,30.63-14.51.64-.64,1.61-.64,1.93,0a21.54,21.54,0,0,1,.65,4.84c0,1.29-.32,3.22-2.58,5.8-7.74,9-25.79,23.86-42.24,23.86-18.37,0-27.72-18.7-26.43-28.05,1-7.42,4.19-15.47,9.35-23.86-9.35,7.42-18.38,20.64-35.14,42.88C1204.67,270.61,1200.8,274.8,1196.61,274.8Z"/><path class="cls-1" d="M1344.58,269.64c-9.67-4.83-19.34-15.15-24.18-26.43-4.84-11-.32-30.63,13.54-49.33,18-23.86,49.65-43.2,71.57-43.2,8.71,0,15.48,2.9,24.5,16.44,7.1,6.13,11.29,11.93,11.29,19.34,0,7.74-6.77,17.74-27.41,30.63-11.92,7.42-30.62,15.48-52.22,21.92a50.2,50.2,0,0,0-.65,11.93,44.32,44.32,0,0,0,13.54,1.94c25.79,0,56.74-17.09,80-48l1-1.29c2.26-2.9,2.9-3.22,3.87-2.26l1,1c2.26,2.26,1.93,3.87.64,6.13l-1,1.61c-21,35.14-62.87,63.83-95.11,63.83C1356.51,273.83,1350.06,272.54,1344.58,269.64Zm77.05-93.49c-20,4.83-43.2,25.14-54.16,47.39,14.19-5.8,28.37-13.22,36.11-19.34C1417.76,193.88,1422.28,185.5,1421.63,176.15Z"/><path class="cls-1" d="M1442.58,264.81c-7.41-5.16-10.64-9.35-10.64-16.45,0-11,7.1-22.89,22.57-43.52,19.67-26.44,33.21-47.39,37.4-55.45,1-1.93,2.58-2.58,6.45-2.26,5.8.33,13.21,2.26,17.4,4.52,4.52,2.57,7.42,7.09,3.87,21.27,17.74-15.15,33.86-25.14,51.91-35.46,5.8-3.22,8.7-4.83,10.32-4.83,2.57,0,3.54,5.15,3.54,8.38s-2.25,5.15-6.12,8.06C1549,171,1518,200.33,1481,250.94c-13.87,19-15.8,21-21,21C1455.16,271.9,1449.67,269.64,1442.58,264.81Z"/><path class="cls-1" d="M1550.9,274.48c-5.8-4.84-10-10.32-10-21,0-12.25,7.09-31.27,18.37-48.68C1607,131.33,1639.56,83.3,1666,45.9c1.62-2.26,3.23-2.9,6.13-1.61,10.32,4.83,19.67,9.67,19.67,20,0,13.21-8.71,29-83.5,140.56-20.31,30.31-25.79,45.46-25.15,53.2,10.64,1.29,30.95-12.25,61.58-53.2l1-1.29c2.26-2.9,2.91-3.22,3.87-2.26l1,1c2.26,2.26,1.93,3.87.65,6.13l-1,1.61c-32.89,55.13-58.36,73.18-77.7,73.18C1564.44,283.18,1557.35,279.64,1550.9,274.48Z"/><path class="cls-1" d="M1561.53,353.47c-8.06-11.61-7.73-31,10.32-47.08,21.92-19.34,61.58-30.62,102.2-37.39,7.74-11.61,16.12-24.51,24.82-39-13.54,14.5-24.82,23.21-29,26.11-9,5.8-15.8,7.74-19.67,7.74-6.12,0-12.89-2.58-20.31-10.64-6.77-7.41-4.51-17.09,14.83-48.36,15.48-24.82,22.89-42.56,24.83-51.26.64-3.55,2.25-4.84,4.83-4.84a38.16,38.16,0,0,1,14.19,3.23c13.86,5.8,17.41,15.15,8.06,36.75-5.48,12.9-13.54,28.37-18.7,40.62,14.51-8.7,32.56-25.79,56.74-59,7.74-10.64,9.35-12.57,12.57-12.57S1755,160,1761.1,162c11,3.55,14.83,10,9.67,19.35-10.64,20.31-29.34,51.26-49.65,82.53,20-1.94,38.36-2.58,51.58-2.58,2.58,0,3.87,1,3.23,2.26-1.62,2.9-3.23,4.19-5.16,7.09s-5.8,4.19-10.32,4.51c-17.73,1.29-34.49,3.23-50.61,5.48-40,57.07-81.89,88.34-118.32,88.34C1578,368.94,1567.34,362.17,1561.53,353.47Zm18.06-9.36c22.89.33,48.68-16.11,78.66-54.16-26.43,7.1-47.71,16.12-61.25,27.08C1586.36,325.42,1578.62,335.09,1579.59,344.11Z"/><path class="cls-2" d="M574.92,240.8c-25.15-21-29-62.22,2.58-106.39C619.08,76.06,719,20.92,748.69,20.92c8.06,0,12.57,4.2,18.7,14.51,7.09,12.9,5.48,19.67,3.22,20.64-71.25,31.27-131.86,64.47-167,115.41-13.22,19.35-17.41,37.4-15.8,50.3,28.37,1.29,79-18.06,107-45.46-6.45,1.93-15.48,4.19-25.15,6.77-7.09,1.61-11.93,1.61-14.18-2.9-2.91-5.48-6.13-13.86-7.1-19.35-.64-3.87-.32-5.48,3.55-6.44,14.19-3.23,77.37-13.54,96.4-15.16,2.9-.32,2.9,3.23.32,5.16-7.09,5.16-12.9,14.51-17.09,17.73-5.16,3.55-14.83,7.74-26.43,11.29a145.7,145.7,0,0,1-2.58,19.66c-1.3,5.81-3.23,11.93-12.26,22.25-15.15,16.12-48,42.55-77.37,42.55C596.52,257.88,582.65,252.08,574.92,240.8Z"/><path class="cls-2" d="M736.75,242.73c-9.67-2.58-18-5.48-18-16.12,0-9.35,6.12-24.5,22.24-45.45,12.57-16.45,33.53-46.11,38.36-55.46,1-2.25,3.55-2.25,5.49-1.61,5.48,1.93,9.35,2.26,13.86,4.84,3.87,2.25,5.16,6.12,5.16,10.64a45.73,45.73,0,0,1-1.94,12.25c18.38-16.77,34.82-28,49.33-34.82,7.09-3.55,11.61-5.16,14.19-5.16s3.22,1.61,5.48,3.55c1,1,2.9,2.25,2.9,2.9s-.65,1.29-1.62,1.93C839.59,140.53,800.91,177.61,770,224.68c-12.9,19.34-15.8,21.92-19.35,21.92C748.35,246.6,745.78,245.31,736.75,242.73Z"/><path class="cls-2" d="M841.52,235.64c-14.18-15.47-17.09-39.33,2.9-65.77C860.54,148.27,888,127,909.87,127c10.64,0,23.21,6.45,27.4,12.9,8.71,3.55,12.9,13.22,12.9,24.82a61.22,61.22,0,0,1-.65,7.74c21.28-1.61,36.11-11.61,50-25.47l1.29-1.29c2.58-2.58,3.55-2.25,4.52-1l.64,1c1.29,1.94,1.29,3.55-.32,5.48l-1.29,1.61C993.05,167,971.77,183.73,946,186a108.75,108.75,0,0,1-9,19.67c-15.48,26.76-39,44.49-63.83,44.49C859.25,250.15,850.23,244.67,841.52,235.64Zm31-8.38c21.6-5.48,42.88-23.54,55.13-42.56-13.54-3.22-19-12.25-19-20.95A160.7,160.7,0,0,0,882.14,196C875.05,207,870.86,217.91,872.47,227.26Zm61.9-56.1A43.49,43.49,0,0,0,937,157.62c0-4.51-1.61-8.06-4.51-9a42.27,42.27,0,0,0-9.68,4.52c0,.64-.32,1.61-.32,2.9C922.44,162.78,925.67,168.58,934.37,171.16Z"/><path class="cls-2" d="M968.54,235c-14.51-16.44-16.77-38.36,4.19-66.41C990.46,145.05,1023,125.7,1042,125.7c7.42,0,13.22,1,19.67,4.84,9.35,5.8,11.6,9.35,11.6,11.28,0,1.29-.32,2.26-3.54,4.19,4.19,5.48,6.77,12.9,6.77,21.93a79.56,79.56,0,0,1-.65,8.7c18.38-2.9,36.11-14.83,50.94-29.66l1.29-1.29c2.58-2.58,3.55-2.25,4.51-1l.65,1c1.29,1.94,1.29,3.55-.32,5.48l-1.29,1.61c-12.58,15.48-36.11,34.82-60.29,39-11.28,28.05-39.33,57.71-71.25,57.71C986.27,249.5,976.92,244.34,968.54,235Zm83.5-43.2c-12.58-3.22-18.38-12.25-19.35-22.89-20.31,16.45-35.78,37.08-33.53,57.39C1018.51,224.36,1039.46,209.2,1052,191.79Zm8.38-40.94c-5.16,2.9-10.64,6.12-16.12,9.67.64,8.71,5.48,14.51,16.12,16.12a36.94,36.94,0,0,0,2.9-13.86C1063.32,157.3,1062.35,153.43,1060.42,150.85Z"/><path class="cls-2" d="M1172.93,251.12c-4.2,0-11-4.2-16.13-9.36-7.09-7.41-8.38-14.5-4.51-23.53,6.13-14.83,28.7-40.3,48.36-67.38-19,11.28-51.58,39-81.89,85.76-8.7,13.54-14.5,14.83-21.28,12.57-3.54-1.29-11.28-6.12-13.54-7.74-4.83-3.22-7.73-9.67-6.77-18.7,1.29-10.63,12.58-27.4,23.22-41.58,35.46-46.75,43.2-56.1,48.35-56.1,5.49,0,12.9,7.74,22.25,12.89,5.8,2.91,7.42,6.45,6.77,11.61,19.34-14.83,30.63-20.31,36.75-20.31a21.66,21.66,0,0,1,13.22,4.83c4.52,3.55,7.1,6.78,7.1,12.9,0,7.42-3.87,18.05-9.68,28.05,25.15-19.34,31.6-23.21,38.69-23.21,4.19,0,7.42,1,11.93,3.22,6.45,3.23,9.67,8.71,9.67,12.9,0,14.5-22.24,36.43-30.3,54.8,10.64-1.93,21.92-7.41,30.62-14.5.65-.65,1.61-.65,1.94,0a22,22,0,0,1,.64,4.83c0,1.29-.32,3.22-2.58,5.8-7.73,9-25.79,23.86-42.23,23.86-18.38,0-27.73-18.7-26.44-28,1-7.41,4.19-15.47,9.35-23.85-9.35,7.41-18.37,20.63-35.14,42.88C1181,246.92,1177.12,251.12,1172.93,251.12Z"/><path class="cls-2" d="M1320.89,246c-9.67-4.84-19.34-15.16-24.17-26.44-4.84-11-.33-30.63,13.54-49.33,18-23.85,49.64-43.2,71.57-43.2,8.7,0,15.47,2.91,24.5,16.45,7.09,6.12,11.28,11.92,11.28,19.34,0,7.74-6.77,17.73-27.4,30.63-11.93,7.41-30.63,15.47-52.23,21.92a50.16,50.16,0,0,0-.64,11.93,44.28,44.28,0,0,0,13.54,1.93c25.79,0,56.74-17.08,79.95-48l1-1.3c2.25-2.9,2.9-3.22,3.87-2.25l1,1c2.26,2.25,1.94,3.86.65,6.12l-1,1.61c-21,35.14-62.87,63.84-95.1,63.84C1332.82,250.15,1326.37,248.86,1320.89,246Zm77.06-93.5c-20,4.84-43.2,25.15-54.17,47.39,14.19-5.8,28.38-13.21,36.11-19.34C1394.08,170.19,1398.59,161.81,1398,152.46Z"/><path class="cls-2" d="M1418.9,241.12c-7.42-5.16-10.64-9.35-10.64-16.44,0-11,7.09-22.89,22.56-43.52,19.67-26.44,33.21-47.4,37.4-55.46,1-1.93,2.58-2.58,6.45-2.25,5.8.32,13.22,2.25,17.41,4.51,4.51,2.58,7.41,7.09,3.87,21.28,17.73-15.16,33.85-25.15,51.9-35.47,5.81-3.22,8.71-4.83,10.32-4.83,2.58,0,3.55,5.16,3.55,8.38s-2.26,5.16-6.13,8.06c-30.3,21.92-61.25,51.26-98.33,101.88-13.86,19-15.8,21-21,21C1431.47,248.21,1426,246,1418.9,241.12Z"/><path class="cls-2" d="M1527.21,250.79c-5.8-4.83-10-10.31-10-20.95,0-12.25,7.09-31.28,18.38-48.68,47.71-73.51,80.27-121.55,106.71-158.94,1.61-2.26,3.22-2.91,6.12-1.62,10.32,4.84,19.67,9.67,19.67,20,0,13.22-8.7,29-83.5,140.57-20.31,30.3-25.79,45.45-25.15,53.19,10.64,1.29,31-12.25,61.58-53.19l1-1.3c2.25-2.9,2.9-3.22,3.87-2.25l1,1c2.26,2.25,1.94,3.86.65,6.12l-1,1.61c-32.88,55.13-58.35,73.19-77.69,73.19C1540.76,259.5,1533.66,256,1527.21,250.79Z"/><path class="cls-2" d="M1537.85,329.78c-8.06-11.61-7.74-30.95,10.31-47.07,21.93-19.34,61.58-30.63,102.2-37.4,7.74-11.6,16.12-24.5,24.83-39-13.54,14.51-24.83,23.21-29,26.12-9,5.8-15.79,7.73-19.66,7.73-6.13,0-12.9-2.58-20.31-10.64-6.77-7.41-4.52-17.08,14.83-48.35,15.47-24.83,22.89-42.56,24.82-51.26.65-3.55,2.26-4.84,4.84-4.84a38.07,38.07,0,0,1,14.18,3.22c13.86,5.8,17.41,15.16,8.06,36.75-5.48,12.9-13.54,28.38-18.7,40.63,14.51-8.71,32.56-25.8,56.75-59,7.73-10.64,9.34-12.58,12.57-12.58s7.74,2.26,13.86,4.2c11,3.54,14.83,10,9.67,19.34-10.64,20.31-29.34,51.26-49.65,82.53,20-1.93,38.37-2.58,51.59-2.58,2.58,0,3.87,1,3.22,2.26-1.61,2.9-3.22,4.19-5.16,7.09s-5.8,4.2-10.31,4.52c-17.73,1.29-34.5,3.22-50.62,5.48-40,57.06-81.89,88.33-118.32,88.33C1554.29,345.25,1543.65,338.48,1537.85,329.78Zm18.05-9.35c22.89.32,48.68-16.12,78.67-54.16-26.44,7.09-47.72,16.12-61.26,27.08C1562.67,301.73,1554.94,311.4,1555.9,320.43Z"/><path class="cls-3" d="M419.34,119.67H319.88a10,10,0,0,1-6.85-2.86L279.86,85.69V259.53c0,.48,0,1.54-.09,3.05H463.86V81.35L426.2,116.8A10,10,0,0,1,419.34,119.67Z"/><path class="cls-4" d="M199.46,232.84c0,.06,2.13,3.39,8.32,13.54,7.46,12.21,18.58,17.43,34,16,16.38-1.57,27.72-7.47,33.7-17.55a31.26,31.26,0,0,0,4.29-13.73V74.71c0-.33,0-.65,0-1V67.81H97a10.69,10.69,0,0,1,.31,2.53V230.18c1.26,5,8.74,29.49,35.45,31.86,13.5,1.2,25-2.08,33.16-9.47,7.44-6.71,11.88-9.56,11.88-19.45Z"/><circle class="cls-2" cx="130.72" cy="95.69" r="14.34" transform="translate(-29.38 120.46) rotate(-45)"/><circle class="cls-2" cx="314.39" cy="153.95" r="14.34"/><circle class="cls-2" cx="388.22" cy="153.95" r="14.34"/><path class="cls-2" d="M351.31,184.73c-8.13,0-15.25,5-19.22,8.46a3.79,3.79,0,0,0,.24,5.91l16.75,12.21a3.8,3.8,0,0,0,4.45,0l16.75-12.21a3.79,3.79,0,0,0,.25-5.91C366.55,189.72,359.43,184.73,351.31,184.73Z"/><circle class="cls-2" cx="204.77" cy="95.69" r="14.34"/><path class="cls-2" d="M447.15,49.33a10.19,10.19,0,0,0-10.67,1L389.39,85.5H307.66l-43.1-32.12a10.2,10.2,0,0,0-16.29,8.18V204.89a28.92,28.92,0,0,1-3.88,12.6c-5.41,9.23-15.67,14.64-30.49,16.08-14,1.35-24-3.43-30.76-14.63a54,54,0,0,1-6.75-19.61,10,10,0,0,0-.88-3.25c13.09-3.34,29.26-12.52,29.26-23.34,0-13.63-17.25-24.68-38.53-24.68s-38.52,11.05-38.52,24.68c0,10.82,16.16,20,29.26,23.34a10,10,0,0,0-.94,4.24,33.49,33.49,0,0,1-10.75,24.3c-7.41,6.77-17.79,9.78-30,8.68-24.17-2.17-30.94-24.63-32.08-29.21V57.56a10.21,10.21,0,0,0-6.35-9.45c-11.6-4.73-23.39-3.44-34.07,3.74C19.44,67.54,7.22,108.2,7.22,125.6c0,28.7,32.15,40.28,33.52,40.76a10.2,10.2,0,0,0,6.73-19.25c-.19-.07-19.85-7.35-19.85-21.51,0-13.69,11-46.34,26.55-56.82a16,16,0,0,1,8.65-3.07v139.5a11,11,0,0,0,.17,1.9c2.81,14.77,17,43.5,50.47,46.5,22.84,2,37.4-6.45,45.59-13.94a52.08,52.08,0,0,0,7.58-8.66c9.74,15.1,24.77,23.17,43,23.17q3.08,0,6.27-.31c27-2.62,40-15.62,46.12-26.07a48.33,48.33,0,0,0,6.68-23.07V81.88l29.51,22a10.21,10.21,0,0,0,6.09,2h88.51a10.16,10.16,0,0,0,6.1-2l33.51-25V244a10.2,10.2,0,0,0,20.4,0V58.45A10.2,10.2,0,0,0,447.15,49.33Z"/><path class="cls-1" d="M119.07,21.18h7.46a5.2,5.2,0,0,1,5.19,5.19v.22a5.2,5.2,0,0,1-5.19,5.19h-7.46a1.5,1.5,0,0,0-1.51,1.51v9.8a5.3,5.3,0,0,1-5.3,5.3h0a5.3,5.3,0,0,1-5.3-5.3v-9.8a1.5,1.5,0,0,0-1.51-1.51H98.1a5.3,5.3,0,0,1-5.3-5.3v-.11A5.2,5.2,0,0,1,98,21.18h7.46A1.5,1.5,0,0,0,107,19.67V9.76a5.19,5.19,0,0,1,5.19-5.19h.22a5.19,5.19,0,0,1,5.19,5.19v9.91A1.5,1.5,0,0,0,119.07,21.18Z"/><path class="cls-2" d="M114.4,16.61h7.46a5.19,5.19,0,0,1,5.19,5.19V22a5.2,5.2,0,0,1-5.19,5.19H114.4a1.5,1.5,0,0,0-1.51,1.51v9.8a5.3,5.3,0,0,1-5.3,5.3h0a5.3,5.3,0,0,1-5.3-5.3v-9.8a1.51,1.51,0,0,0-1.51-1.51H93.43a5.3,5.3,0,0,1-5.3-5.3V21.8a5.19,5.19,0,0,1,5.19-5.19h7.46a1.52,1.52,0,0,0,1.51-1.51V5.19A5.19,5.19,0,0,1,107.48,0h.22a5.19,5.19,0,0,1,5.19,5.19V15.1A1.51,1.51,0,0,0,114.4,16.61Z"/><path class="cls-1" d="M30.94,204.87H38.4a5.2,5.2,0,0,1,5.19,5.19v.22a5.2,5.2,0,0,1-5.19,5.19H30.94A1.51,1.51,0,0,0,29.43,217v9.8a5.3,5.3,0,0,1-5.3,5.3h0a5.3,5.3,0,0,1-5.3-5.3V217a1.52,1.52,0,0,0-1.51-1.51H10a5.3,5.3,0,0,1-5.3-5.3v-.11a5.19,5.19,0,0,1,5.19-5.19h7.46a1.51,1.51,0,0,0,1.51-1.51v-9.91A5.2,5.2,0,0,1,24,188.26h.22a5.2,5.2,0,0,1,5.19,5.19v9.91A1.5,1.5,0,0,0,30.94,204.87Z"/><path class="cls-2" d="M26.27,200.3h7.46a5.19,5.19,0,0,1,5.18,5.19v.22a5.19,5.19,0,0,1-5.18,5.19H26.27a1.51,1.51,0,0,0-1.52,1.51v9.8a5.29,5.29,0,0,1-5.29,5.3h0a5.3,5.3,0,0,1-5.3-5.3v-9.8a1.51,1.51,0,0,0-1.51-1.51H5.3A5.3,5.3,0,0,1,0,205.6v-.11a5.19,5.19,0,0,1,5.19-5.19h7.46a1.51,1.51,0,0,0,1.51-1.51v-9.91a5.19,5.19,0,0,1,5.19-5.19h.22a5.18,5.18,0,0,1,5.18,5.19v9.91A1.51,1.51,0,0,0,26.27,200.3Z"/><path class="cls-1" d="M488.91,274.94h7.46a5.2,5.2,0,0,1,5.19,5.19v.22a5.2,5.2,0,0,1-5.19,5.19h-7.46a1.51,1.51,0,0,0-1.52,1.51v9.8a5.29,5.29,0,0,1-5.29,5.3h0a5.3,5.3,0,0,1-5.3-5.3v-9.8a1.51,1.51,0,0,0-1.51-1.51h-7.35a5.3,5.3,0,0,1-5.3-5.3v-.11a5.19,5.19,0,0,1,5.19-5.19h7.46a1.52,1.52,0,0,0,1.51-1.51v-9.91a5.19,5.19,0,0,1,5.19-5.19h.22a5.18,5.18,0,0,1,5.18,5.19v9.91A1.52,1.52,0,0,0,488.91,274.94Z"/><path class="cls-2" d="M484.24,270.37h7.45a5.19,5.19,0,0,1,5.19,5.19v.22a5.18,5.18,0,0,1-5.19,5.18h-7.45a1.52,1.52,0,0,0-1.52,1.52v9.8a5.3,5.3,0,0,1-5.29,5.3h0a5.3,5.3,0,0,1-5.3-5.3v-9.8a1.52,1.52,0,0,0-1.51-1.52h-7.35a5.29,5.29,0,0,1-5.3-5.29v-.11a5.19,5.19,0,0,1,5.19-5.19h7.46a1.52,1.52,0,0,0,1.51-1.51V259a5.19,5.19,0,0,1,5.19-5.19h.21a5.19,5.19,0,0,1,5.19,5.19v9.91A1.52,1.52,0,0,0,484.24,270.37Z"/><path class="cls-1" d="M519.56,228.86H527a5.18,5.18,0,0,1,5.18,5.19v.21a5.18,5.18,0,0,1-5.18,5.19h-7.46A1.52,1.52,0,0,0,518,241v9.81a5.29,5.29,0,0,1-5.29,5.29h0a5.29,5.29,0,0,1-5.3-5.29V241a1.52,1.52,0,0,0-1.51-1.51h-7.35a5.3,5.3,0,0,1-5.3-5.3v-.1a5.19,5.19,0,0,1,5.19-5.19h7.46a1.52,1.52,0,0,0,1.51-1.52v-9.91a5.19,5.19,0,0,1,5.19-5.19h.21a5.19,5.19,0,0,1,5.19,5.19v9.91A1.52,1.52,0,0,0,519.56,228.86Z"/><path class="cls-2" d="M514.88,224.29h7.46a5.18,5.18,0,0,1,5.19,5.18v.22a5.19,5.19,0,0,1-5.19,5.19h-7.46a1.52,1.52,0,0,0-1.51,1.51v9.8a5.3,5.3,0,0,1-5.3,5.3h0a5.29,5.29,0,0,1-5.29-5.3v-9.8a1.52,1.52,0,0,0-1.52-1.51h-7.35a5.29,5.29,0,0,1-5.29-5.3v-.11a5.18,5.18,0,0,1,5.19-5.18h7.45a1.52,1.52,0,0,0,1.52-1.52v-9.91a5.19,5.19,0,0,1,5.19-5.19h.21a5.19,5.19,0,0,1,5.19,5.19v9.91A1.52,1.52,0,0,0,514.88,224.29Z"/></g></g></svg>