<svg xmlns="http://www.w3.org/2000/svg" xmlns:xlink="http://www.w3.org/1999/xlink" viewBox="0 0 430.17 263.68"><defs><style>.cls-1,.cls-14,.cls-18,.cls-2,.cls-20,.cls-7{fill:none;}.cls-2,.cls-20{stroke:#2d1a49;}.cls-14,.cls-18,.cls-2,.cls-20,.cls-7{stroke-miterlimit:10;}.cls-2{stroke-width:0.78px;}.cls-3{fill:#03aa99;}.cls-4{fill:#4a148c;}.cls-5{fill:#000e5b;}.cls-6{fill:#3dc19a;}.cls-7{stroke:#fff;stroke-width:1.57px;}.cls-14,.cls-18,.cls-20,.cls-7{stroke-linecap:round;}.cls-8{fill:#91dbac;}.cls-9{fill:#805ab7;}.cls-10{fill:#fbd1b7;}.cls-11{fill:#444b54;}.cls-12{fill:#d39176;}.cls-13{fill:#8fc9c6;}.cls-14{stroke:#aaeeed;stroke-width:0.92px;}.cls-15{fill:#aaeeed;}.cls-16{fill:#ba5964;}.cls-17{fill:#001c45;}.cls-18{stroke:#001c45;stroke-width:1.71px;}.cls-19{fill:#47f4df;}.cls-20{stroke-width:2.1px;}.cls-21{fill:#8896a5;}.cls-22{fill:#66717c;}.cls-23{clip-path:url(#clip-path);}.cls-24{fill:#e09b36;}.cls-25{fill:#efb867;}</style><clipPath id="clip-path"><path class="cls-1" d="M287,204.15s-39.65-13.68-54.35-19.06-36.24-16.16-44.75-7.11-1.4,22.52,19.06,29.85,78.28,9.57,78.28,9.57A25.65,25.65,0,0,0,287,204.15Z"/></clipPath></defs><title>not-found</title><g id="Capa_2" data-name="Capa 2"><g id="Objects"><path class="cls-2" d="M310.58,59.76s13.7-16.53,40-6,52,53.81,28.1,106.15"/><path class="cls-3" d="M313.25,71.29c-1.2,3.09-13.15-1.56-11.95-4.65l1.68-4.3a6.41,6.41,0,0,1,8.29-3.65h0a6.4,6.4,0,0,1,3.65,8.3Z"/><path class="cls-4" d="M301.3,66.64c-1.36,3,10.75,7.74,11.95,4.65C314.16,68.9,302.28,64.46,301.3,66.64Z"/><path class="cls-5" d="M306,69c-.13.39-.7.54-1.28.35s-.93-.67-.8-1,.7-.55,1.27-.35S306.15,68.57,306,69Z"/><path class="cls-5" d="M310.26,70.52c-.13.39-.7.55-1.28.35s-.93-.66-.8-1.05.7-.54,1.27-.35S310.39,70.14,310.26,70.52Z"/><path class="cls-6" d="M376.75,221.46a17.27,17.27,0,0,1-8.54-6.15c-3.37-4.73-1.57-16,4.27-19.24s10.33-7,9.43-15.81,2-15.72,9.44-16.62,10.33-1,17.74-7.69,13.48-7.74,16.4-4,.67,8.91-.9,13.42,4,9.13,5.16,13.68.23,10.41-5.61,13.65-9.88,5.84-9.21,11.73-2.7,14.83-15.27,17Z"/><path class="cls-7" d="M416.05,161.45s-27.36,21.47-32.21,60"/><path class="cls-8" d="M351.14,145.44c-4.31,2.7-4,7.4-3.82,13.36s-1.48,8.13-4.89,12.1-1.58,10,4.35,12.73,11.1,6.86,8,13.88-2,19.77,13.47,24l19.93,0s14-8.14,15.78-23-10.1-16.17-13.47-21.13-2.37-11.72-2.31-18.56-5.1-10.3-12.07-9.92-9.68,0-13.27-2.46S354.74,143.18,351.14,145.44Z"/><path class="cls-7" d="M358.07,154.26c0,.2,24.24,16.64,23.05,67.12"/><path class="cls-9" d="M414,224.38H1.57A1.58,1.58,0,0,1,0,222.8H0a1.57,1.57,0,0,1,1.57-1.57H414a1.57,1.57,0,0,1,1.57,1.57h0A1.57,1.57,0,0,1,414,224.38Z"/><path class="cls-10" d="M70.41,224.38H388.74a0,0,0,0,1,0,0V232a31.64,31.64,0,0,1-31.64,31.64H102A31.64,31.64,0,0,1,70.41,232v-7.67A0,0,0,0,1,70.41,224.38Z"/><path class="cls-11" d="M207,207.83c3.37,2.71,13,13.6,49.73,13.6,10.25,0,21.32.43,30.31-2,23.24-6.31,38.45-14.77,38.45-14.77l-44.95-15.29-40.3.23Z"/><polygon class="cls-12" points="237.93 201.41 220.35 204.75 220.99 214.33 240.69 213.84 237.93 201.41"/><path class="cls-11" d="M237.93,201.41s42.61-12,55.86-15.42c15.17-3.86,38.19-14.32,45.95-4.62S338,204,317,209.65s-78.42,5.11-78.42,5.11Z"/><path class="cls-13" d="M203.81,198.9a23.6,23.6,0,0,0-.58,6.86c.11,4.66,2.47,8.2,2.72,15a22.67,22.67,0,0,0,2.51-11.39A13.8,13.8,0,0,0,203.81,198.9Z"/><path class="cls-3" d="M229.3,214.54c-2.75.29-7.35,2.44-10.18,3.94s-4.33,3.06-9.36,3c0,0,0-13.32-.56-17.43s-1.37-4.83-1.37-4.83,4.66.3,7,1.54,2.58,1.81,6.68,2,5.77.38,7.55.35A11.33,11.33,0,0,1,229.3,214.54Z"/><path class="cls-14" d="M217.39,216.12s1.56-6.92-.73-11.65"/><path class="cls-14" d="M220.28,215.31a16.76,16.76,0,0,0-.71-10.29"/><path class="cls-14" d="M223.53,214s1.37-3.51-.45-8.7"/><path class="cls-15" d="M209.76,221.5c-1.6,0-3.54-.07-3.81-.74s1.59-4.64.85-12.52c-.4-4.23-3.37-9.2-3-9.34s2.72-1,4,.34S215.71,209.23,209.76,221.5Z"/><path class="cls-12" d="M315.36,113.37c5.54-3.92,17.49-13,23.77-32.63a39.47,39.47,0,0,0,2.12-13.33c-3.24-2.73-2.9-7.89-5.86-11.09-4.16-4.5-7.88-10.22.25-10.22,4.53,0,8.7.19,10.93,2.34A35.89,35.89,0,0,1,352.3,57c1.38,4-.22,9-.4,15.06s-4.15,44-33.42,59.92Z"/><path class="cls-12" d="M251.93,99.08a58.07,58.07,0,0,1-.55,6.86c-.42,2,0,3.06-6.12,4.12,0,0,2.48,8,13.09,9.39s14.93-7,14.61-7a22.09,22.09,0,0,1-4.22-1.83c-.95-.61-.25-12.31-.25-12.31Z"/><path class="cls-16" d="M268.35,101.3s-1.29,4.11-7.73,4.54-8.83-3.64-8.83-3.64l.14-3.12,16.56-.74Z"/><path class="cls-12" d="M241.81,81.46s-3.33-.52-4.79,1.93.37,7,3.83,7.78S245.26,90,245.26,90Z"/><path class="cls-16" d="M238.9,83.91a3,3,0,0,1,2.72-.06c.28.16-.09.64-.35.58-1.42-.32-3.1-.17-3.55,1.51,0,.09-.1,0-.1,0A2.25,2.25,0,0,1,238.9,83.91Z"/><path class="cls-16" d="M239.55,84c.15-.09.54.24.52.34a2,2,0,0,0-.65.76,2.51,2.51,0,0,0-.12,1.58A2.78,2.78,0,0,0,241.85,89s.07.06,0,.08c-1.12.44-2.58-.57-3-1.57S238.32,84.75,239.55,84Z"/><path class="cls-12" d="M274,75.28s2.9-1.71,5.16,0,2.26,6.65-.67,8.64-4.52.59-4.52.59Z"/><path class="cls-16" d="M277.6,76.48a3,3,0,0,0-2.55,1c-.2.26.32.56.54.41,1.2-.83,2.81-1.3,3.86.09.06.07.09,0,.07-.08A2.24,2.24,0,0,0,277.6,76.48Z"/><path class="cls-16" d="M277,76.76c-.17,0-.41.41-.36.51a1.91,1.91,0,0,1,.89.46,2.36,2.36,0,0,1,.69,1.42,2.77,2.77,0,0,1-1.5,3.12s0,.09,0,.09c1.2,0,2.18-1.49,2.19-2.56S278.45,77,277,76.76Z"/><path class="cls-12" d="M262.07,59.16a15.77,15.77,0,0,0-8-.66A16,16,0,0,0,246.75,62a17.8,17.8,0,0,0-5.52,16.88v0a44.61,44.61,0,0,0,1.31,5.21l.76,2.39a37.57,37.57,0,0,0,4.06,8.71,14.35,14.35,0,0,0,26.54-5.09,37.67,37.67,0,0,0,.54-9.6l-.18-2.5a45.47,45.47,0,0,0-.71-5.33v0A17.7,17.7,0,0,0,262.07,59.16Z"/><path class="cls-17" d="M264.45,77.58a1.72,1.72,0,1,1,2,1.37A1.72,1.72,0,0,1,264.45,77.58Z"/><path class="cls-17" d="M264.86,71.34,273,72.87a5.62,5.62,0,0,0-3.46-3.39,4.4,4.4,0,0,0-3.55,0A2,2,0,0,0,264.86,71.34Z"/><path class="cls-17" d="M250.93,73.81,245,79.56a5.63,5.63,0,0,1,1-4.74,4.4,4.4,0,0,1,3-1.94A2,2,0,0,1,250.93,73.81Z"/><path class="cls-17" d="M253.62,79.9a1.72,1.72,0,1,0-1.36,2A1.72,1.72,0,0,0,253.62,79.9Z"/><path class="cls-16" d="M259.61,78.21c-.78.21-1.35,8.21-.26,9.35a2.51,2.51,0,0,0,4-.77C263.91,85.34,260.42,78.11,259.61,78.21Z"/><path class="cls-18" d="M232.69,63.81s6.16-1.2,8.5,2"/><path class="cls-18" d="M232.51,57.75s7.64,1.29,8.79,8.59"/><path class="cls-17" d="M243.76,65.78s4.3,6.49,11.38,8.4,11.09-6.28,10.37-10c0,0,6.92,11.14,8.48,11.1a23.15,23.15,0,0,0,1.13-9.51,12.23,12.23,0,0,0-5.49-9.37,5,5,0,0,0-5.8-.06,12.35,12.35,0,0,0-12.55-6.73c-8.36.94-11.61,6.71-10.39,15.52,0,0-3.14-.89-5,2.75s.21,10.72,2.71,14.07a9.48,9.48,0,0,1,3.22-.49s-1.47-5.82-.09-10.93C242.84,66.38,243.76,65.78,243.76,65.78Z"/><path class="cls-19" d="M247.89,109.5c.75,3,5,7.81,11.23,8.1s11.33-3.88,12.18-5.71c5.18.48,11.77,1.88,14,2.29,3.13.56,6.17,3.36,5.05,12.17-1.09,8.56-7.88,62.66-7.88,62.66s-17.95,7-42.21.58c0,0-14.68-58.72-16-63.8s-2.91-10.45,1.74-12.05S247.89,109.5,247.89,109.5Z"/><path class="cls-3" d="M267.92,172a9.3,9.3,0,0,0,1,.15c3.42.36,1.86-3.5.79-5-1.64-2.32-13-11.14-13-11.14l-8.84.75-10,4.1L233.84,164c.82,3.3,1.63,6.51,2.37,9.48,3.72-2.33,12.72-7.86,14.72-8.05a7.29,7.29,0,0,1,3.51.8c1.62.7,3.24,1.34,4.9,1.94.75.28,1.51.55,2.23.9,1.3.63,2.48,1.5,3.79,2.1A11.07,11.07,0,0,0,267.92,172Z"/><line class="cls-20" x1="306.13" y1="153.46" x2="312.57" y2="156.53"/><line class="cls-20" x1="303.41" y1="158.8" x2="309.85" y2="161.88"/><path class="cls-2" d="M213.45,181.37c8.48,1.23,23.49,1.54,36.76-10.47,10.68-9.67,20.43-28.12,45.24-20"/><path class="cls-3" d="M307.13,150c2.93,1.55-3.07,12.88-6,11.33l-4.08-2.16a6.41,6.41,0,0,1-2.67-8.66h0a6.42,6.42,0,0,1,8.67-2.67Z"/><path class="cls-12" d="M219.44,122.62S199.36,158.9,195.71,165s-2.9,13-2.14,14.71,11.16,2.9,20.71-.75,34.16-16.15,36-17.12a45.56,45.56,0,0,0,4.69,2.66c3.28,1.55,5.94,1.61,8.06,3.22s4.46,4.68,8.57,2.7c2.45-1.18-3-8.8-5.41-13-2.37-2-10.86-5.54-15.11-4.94-6,.86-36.23,11.14-36.23,11.14l10.95-18.89Z"/><path class="cls-19" d="M227,113.41c-4.93,1.55-6.83,4-11.65,12.73s-11.2,19.43-11.2,19.43A26.78,26.78,0,0,0,220.79,156l7.76-13.1Z"/><path class="cls-19" d="M285.28,114.18c5.9,1,20.9,5.36,30.08-.81a35.9,35.9,0,0,1,5,20.84s-12.44,11.09-31.88,6.64Z"/><polygon class="cls-12" points="287.04 204.15 304.29 208.89 302.89 218.38 283.29 216.32 287.04 204.15"/><path class="cls-21" d="M287,204.15s-39.65-13.68-54.35-19.06-36.24-16.16-44.75-7.11-1.4,22.52,19.06,29.85,78.28,9.57,78.28,9.57A25.65,25.65,0,0,0,287,204.15Z"/><path class="cls-13" d="M321.24,204.38a23.18,23.18,0,0,1,0,6.88c-.48,4.64-3.12,8-3.9,14.74a22.75,22.75,0,0,1-1.59-11.56A13.8,13.8,0,0,1,321.24,204.38Z"/><path class="cls-3" d="M294.58,217.93c2.73.51,7.14,3,9.84,4.74s4.07,3.39,9.09,3.76c0,0,1.09-13.27,1.95-17.34s1.76-4.7,1.76-4.7-4.68-.07-7.09,1-2.72,1.6-6.81,1.43-5.78-.08-7.56-.26A11.38,11.38,0,0,0,294.58,217.93Z"/><path class="cls-14" d="M306.34,220.45s-1-7,1.65-11.55"/><path class="cls-14" d="M303.52,219.42a16.72,16.72,0,0,1,1.53-10.2"/><path class="cls-14" d="M300.39,217.86s-1.09-3.62,1.14-8.64"/><path class="cls-15" d="M313.51,226.43c1.59.1,3.54.21,3.86-.43s-1.22-4.76.15-12.55c.74-4.19,4.09-8.9,3.72-9.07s-2.62-1.23-4,0S308.56,213.72,313.51,226.43Z"/><path class="cls-22" d="M287,211.26h-.9s-25.84-1.68-53.52-6.24c-27.18-4.48-45.56-13.62-48-20.35-1.21,8.13,6.62,17.49,22.46,23.16,20.47,7.32,78.28,9.57,78.28,9.57A26.61,26.61,0,0,0,287,211.26Z"/><g class="cls-23"><path class="cls-2" d="M281.9,201.82c0,3.58-.77,11.62-2.34,16.56"/></g><path class="cls-3" d="M228.55,142.85s3.08-8.17,1-20.23c0,0,3.87,14.71-.33,22.82Z"/><path class="cls-3" d="M288.5,140.85a59.19,59.19,0,0,0-.89-18s2.45,5,2.32,18.27Z"/><path class="cls-24" d="M165.23,188.52c3.59-.73,9.88-1.36,14.34,2.54,2.86,2.5,1.5,2.93-1,2.89-4.3-.08-7.72,3.52-7.72,3.52s-5.58.64-6.95-3.79C161.88,187.25,165.23,188.52,165.23,188.52Z"/><path class="cls-25" d="M151.58,221.21h27.57c6.29.14,10.59-.34,13.67-3.08,3.59-3.17,4.21-8.84,3.64-13.17-.67-1.75-4.48-.45-9.17-1.25-4.27-.72-6.73-2.64-9.17-5.89s-3.72-4.52-8.51-6.85a10.43,10.43,0,0,0-4.76-1.16,21.93,21.93,0,0,1,4.26-6.07c3.09-2.86-2.43-4-8.73-1.17a33.42,33.42,0,0,0-10.41,8.1c-1.78,2-6.45,1.73-11.51-2.16s-22.8-20-42.23-17.3-32.92,18.62-34.9,30.06,1.84,17.93,5.14,20Z"/><path class="cls-25" d="M63,201.36c-5.41-2.93-19.23-3.12-29.65,5.18-10.15,8.09-14.38,25-6,37.71s24.92,13.14,27.06,11.34-8.83-8.31-11.8-16.61c0,0,5.93,3.77,9.31,4.13s-5.16-8.38-6-17.63,3.67-19.4,14.92-19Z"/><path class="cls-17" d="M196.16,211.14c-.6.12-.38-3.22-1.11-2.9s.45,2,.45,2c-2.08-.52-5-3.51-3.85-5.36s4.59-1,5.39-.71C198.25,204.7,199.08,208.73,196.16,211.14Z"/><path class="cls-24" d="M92.9,185.8a12.73,12.73,0,0,1,10.31,8.67c2.85,8.06-.32,12.9-2.67,15.5,0,0,10.57-1,15.27,2.1s4.28,9.15,4.28,9.15h2.56s.11-7.4-4.84-10.5a19.38,19.38,0,0,0-11.9-3.3,17.5,17.5,0,0,0-.42-13.66C102.16,186.39,95.84,185.38,92.9,185.8Z"/><path class="cls-24" d="M131.8,209.54s11-1.23,15.67,2.29,4.11,9.38,4.11,9.38l2.62,0s.69-6.27-4-10.09S134.94,208.47,131.8,209.54Z"/><path class="cls-17" d="M163.45,204.45s-.46-2.74,2.78-3.46c3.5-.78,4.44,1.84,4.44,1.84a7.45,7.45,0,0,0-4.1-.11A8.12,8.12,0,0,0,163.45,204.45Z"/><path class="cls-4" d="M176.67,22.18l21.25,22-7.12,8L167.25,32.8Zm28.24,27.58a5.78,5.78,0,0,1,1.45,1.94,6.31,6.31,0,0,1,.56,2.27,6.08,6.08,0,0,1-.3,2.31,5.85,5.85,0,0,1-1.2,2.07,5.74,5.74,0,0,1-1.93,1.46,6.24,6.24,0,0,1-2.26.58,6.11,6.11,0,0,1-2.31-.3,6,6,0,0,1-2.09-1.22,6.16,6.16,0,0,1-2.06-4.21,6.36,6.36,0,0,1,.29-2.32,5.95,5.95,0,0,1,3.13-3.53,6.54,6.54,0,0,1,2.27-.57,6.3,6.3,0,0,1,2.34.31A6.11,6.11,0,0,1,204.91,49.76Z"/><path class="cls-4" d="M220.72,29.71l-9.5,2.37a16.17,16.17,0,0,1-.91-5.08,11.23,11.23,0,0,1,.61-3.7,9,9,0,0,1,1.51-2.68,24.29,24.29,0,0,1,1.87-2q.93-.87,1.62-1.65a3,3,0,0,0,.79-1.69,2.44,2.44,0,0,0-.18-1.19,2.48,2.48,0,0,0-.89-1.11,3.92,3.92,0,0,0-1.71-.63,6.72,6.72,0,0,0-2.62.22,20.11,20.11,0,0,0-2.36.78,25.12,25.12,0,0,0-2.77,1.29,27.83,27.83,0,0,0-2.76,1.68,16.64,16.64,0,0,0-2.35,1.91l-4-10.71c.59-.59,1.27-1.21,2-1.87a20.91,20.91,0,0,1,2.59-1.9A26.7,26.7,0,0,1,204.91,2,24.22,24.22,0,0,1,208.82.71,22.66,22.66,0,0,1,215.6,0a16.82,16.82,0,0,1,6.09,1.47,13.91,13.91,0,0,1,4.8,3.66,14.17,14.17,0,0,1,2.9,5.89,10.38,10.38,0,0,1,.31,4.48,8.24,8.24,0,0,1-1.27,3.14,12.27,12.27,0,0,1-2.21,2.41c-.86.71-1.68,1.46-2.47,2.24A12.61,12.61,0,0,0,221.7,26,8.09,8.09,0,0,0,220.72,29.71ZM224,36.78a5.73,5.73,0,0,1,.1,2.43,6.42,6.42,0,0,1-.81,2.19,6.25,6.25,0,0,1-1.56,1.73,6.07,6.07,0,0,1-4.58,1.14,6.19,6.19,0,0,1-2.19-.79,6.41,6.41,0,0,1-1.73-1.56,5.85,5.85,0,0,1-1-2.19,6,6,0,0,1-.11-2.42,6.2,6.2,0,0,1,.79-2.22,6.41,6.41,0,0,1,1.55-1.74,5.8,5.8,0,0,1,2.19-1.06,5.73,5.73,0,0,1,2.4-.09,6.24,6.24,0,0,1,2.19.82,6.34,6.34,0,0,1,1.75,1.57A6,6,0,0,1,224,36.78Z"/></g></g></svg>