<svg xmlns="http://www.w3.org/2000/svg" viewBox="0 0 190.48 42.73"><defs><style>.cls-1{fill:#4a148c;}</style></defs><title>zig-zag</title><g id="Capa_2" data-name="Capa 2"><g id="Objects"><polygon class="cls-1" points="94.6 42.73 78.67 30.19 62.75 42.73 46.83 30.19 30.9 42.73 14.99 30.2 0.69 42.46 0 41.66 14.96 28.83 30.9 41.38 46.83 28.84 62.75 41.38 78.67 28.84 94.6 41.38 110.52 28.84 126.44 41.38 142.37 28.84 158.29 41.38 174.22 28.84 190.47 41.64 189.82 42.47 174.22 30.19 158.29 42.73 142.37 30.19 126.44 42.73 110.52 30.19 94.6 42.73"/><polygon class="cls-1" points="94.59 13.9 78.67 1.36 62.75 13.9 46.83 1.36 30.9 13.9 14.99 1.37 0.69 13.63 0 12.82 14.96 0 30.9 12.55 46.83 0.01 62.75 12.55 78.67 0.01 94.59 12.55 110.52 0.01 126.44 12.55 142.37 0.01 158.29 12.55 174.22 0.01 190.47 12.81 189.82 13.64 174.22 1.36 158.29 13.9 142.37 1.36 126.44 13.9 110.52 1.36 94.59 13.9"/></g></g></svg>